<svg width="123" height="20" viewBox="0 0 123 20" fill="none" xmlns="http://www.w3.org/2000/svg">
<path d="M0 19.5397V0.120614H4.32875C4.32875 0.109655 4.32875 10.8493 4.32875 10.8493H4.38355L8.86572 5.5343H13.9397L8.93148 11.5507L14.8164 19.5507H9.41367L4.32875 12.6685V19.5507H0V19.5397Z" fill="#014E8B"/>
<mask id="mask0_67_7512" style="mask-type:luminance" maskUnits="userSpaceOnUse" x="0" y="0" width="15" height="20">
<path d="M0 19.5397V0.120614H4.32875C4.32875 0.109655 4.32875 10.8493 4.32875 10.8493H4.38355L8.86572 5.5343H13.9397L8.93148 11.5507L14.8164 19.5507H9.41367L4.32875 12.6685V19.5507H0V19.5397Z" fill="white"/>
</mask>
<g mask="url(#mask0_67_7512)">
<path d="M20.1076 31.1561C26.2508 31.1561 31.2309 26.6912 31.2309 21.1835C31.2309 15.6758 26.2508 11.2109 20.1076 11.2109C13.9644 11.2109 8.98438 15.6758 8.98438 21.1835C8.98438 26.6912 13.9644 31.1561 20.1076 31.1561Z" fill="#46BEB7"/>
<path fill-rule="evenodd" clip-rule="evenodd" d="M20.1084 11.5943C14.1365 11.5943 9.36868 15.9257 9.36868 21.1833C9.36868 26.4408 14.1365 30.7723 20.1084 30.7723C26.0802 30.7723 30.8481 26.4408 30.8481 21.1833C30.8481 15.9257 26.0802 11.5943 20.1084 11.5943ZM8.60156 21.1833C8.60156 15.4254 13.7938 10.8271 20.1084 10.8271C26.4229 10.8271 31.6152 15.4254 31.6152 21.1833C31.6152 26.9411 26.4229 31.5394 20.1084 31.5394C13.7938 31.5394 8.60156 26.9411 8.60156 21.1833Z" fill="white"/>
<path d="M-5.91891 20.1974C-0.653313 20.1974 3.6153 16.1987 3.6153 11.2659C3.6153 6.33323 -0.653313 2.33447 -5.91891 2.33447C-11.1845 2.33447 -15.4531 6.33323 -15.4531 11.2659C-15.4531 16.1987 -11.1845 20.1974 -5.91891 20.1974Z" fill="#FE8E16"/>
<path fill-rule="evenodd" clip-rule="evenodd" d="M-5.91816 2.7178C-10.9959 2.7178 -15.0688 6.56805 -15.0688 11.2657C-15.0688 15.9634 -10.9959 19.8136 -5.91816 19.8136C-0.840417 19.8136 3.23249 15.9634 3.23249 11.2657C3.23249 6.56805 -0.840417 2.7178 -5.91816 2.7178ZM-15.8359 11.2657C-15.8359 6.09796 -11.3716 1.95068 -5.91816 1.95068C-0.464709 1.95068 3.99961 6.09796 3.99961 11.2657C3.99961 16.4335 -0.464709 20.5808 -5.91816 20.5808C-11.3716 20.5808 -15.8359 16.4335 -15.8359 11.2657Z" fill="white"/>
</g>
<path d="M21.4796 8.92072C20.3837 8.96455 19.8248 9.74263 19.8248 11.244V19.5289H15.4961V11.244C15.4961 7.25497 17.4906 5.16183 21.4796 4.95361H21.7207C25.7098 5.15087 27.7043 7.25497 27.7043 11.244V19.5289H23.3755V11.244C23.3755 9.73168 22.8276 8.96455 21.7207 8.92072H21.4796Z" fill="#014E8B"/>
<mask id="mask1_67_7512" style="mask-type:luminance" maskUnits="userSpaceOnUse" x="15" y="4" width="13" height="16">
<path d="M21.4796 8.92072C20.3837 8.96455 19.8248 9.74263 19.8248 11.244V19.5289H15.4961V11.244C15.4961 7.25497 17.4906 5.16183 21.4796 4.95361H21.7207C25.7098 5.15087 27.7043 7.25497 27.7043 11.244V19.5289H23.3755V11.244C23.3755 9.73168 22.8276 8.96455 21.7207 8.92072H21.4796Z" fill="white"/>
</mask>
<g mask="url(#mask1_67_7512)">
<path d="M20.1076 31.1566C26.2508 31.1566 31.2309 26.6917 31.2309 21.184C31.2309 15.6763 26.2508 11.2114 20.1076 11.2114C13.9644 11.2114 8.98438 15.6763 8.98438 21.184C8.98438 26.6917 13.9644 31.1566 20.1076 31.1566Z" fill="#46BEB7"/>
<path fill-rule="evenodd" clip-rule="evenodd" d="M20.1084 11.5948C14.1365 11.5948 9.36868 15.9262 9.36868 21.1838C9.36868 26.4413 14.1365 30.7728 20.1084 30.7728C26.0802 30.7728 30.8481 26.4413 30.8481 21.1838C30.8481 15.9262 26.0802 11.5948 20.1084 11.5948ZM8.60156 21.1838C8.60156 15.4259 13.7938 10.8276 20.1084 10.8276C26.4229 10.8276 31.6152 15.4259 31.6152 21.1838C31.6152 26.9416 26.4229 31.5399 20.1084 31.5399C13.7938 31.5399 8.60156 26.9416 8.60156 21.1838Z" fill="white"/>
</g>
<path d="M54.2903 14.0161V5.52295H58.6301V14.0161C58.7068 15.3092 59.2438 15.9668 60.2629 15.9996H60.504C61.5999 15.9668 62.1588 15.1887 62.1588 13.6873V5.52295H66.4876V13.6873C66.4876 17.6544 64.493 19.7585 60.504 19.9777H60.2629C58.6739 19.89 57.4027 19.5065 56.4492 18.827C55.5068 19.5065 54.2356 19.89 52.6465 19.9777H52.4054C48.4164 19.7585 46.4219 17.6654 46.4219 13.6873V5.52295H50.7506V13.6873C50.7506 15.1996 51.2986 15.9668 52.4054 15.9996H52.6465C53.6657 15.9668 54.2136 15.2983 54.2794 14.0161H54.2903Z" fill="#014E8B"/>
<mask id="mask2_67_7512" style="mask-type:luminance" maskUnits="userSpaceOnUse" x="46" y="5" width="21" height="15">
<path d="M54.2903 14.0161V5.52295H58.6301V14.0161C58.7068 15.3092 59.2438 15.9668 60.2629 15.9996H60.504C61.5999 15.9668 62.1588 15.1887 62.1588 13.6873V5.52295H66.4876V13.6873C66.4876 17.6544 64.493 19.7585 60.504 19.9777H60.2629C58.6739 19.89 57.4027 19.5065 56.4492 18.827C55.5068 19.5065 54.2356 19.89 52.6465 19.9777H52.4054C48.4164 19.7585 46.4219 17.6654 46.4219 13.6873V5.52295H50.7506V13.6873C50.7506 15.1996 51.2986 15.9668 52.4054 15.9996H52.6465C53.6657 15.9668 54.2136 15.2983 54.2794 14.0161H54.2903Z" fill="white"/>
</mask>
<g mask="url(#mask2_67_7512)">
<path d="M70.7404 30.3885C76.8836 30.3885 81.8637 25.9236 81.8637 20.4159C81.8637 14.9082 76.8836 10.4434 70.7404 10.4434C64.5972 10.4434 59.6172 14.9082 59.6172 20.4159C59.6172 25.9236 64.5972 30.3885 70.7404 30.3885Z" fill="#46BEB7"/>
<path fill-rule="evenodd" clip-rule="evenodd" d="M70.7412 10.8272C64.7694 10.8272 60.0015 15.1586 60.0015 20.4162C60.0015 25.6737 64.7694 30.0052 70.7412 30.0052C76.713 30.0052 81.4809 25.6737 81.4809 20.4162C81.4809 15.1586 76.713 10.8272 70.7412 10.8272ZM59.2344 20.4162C59.2344 14.6583 64.4266 10.0601 70.7412 10.0601C77.0558 10.0601 82.248 14.6583 82.248 20.4162C82.248 26.174 77.0558 30.7723 70.7412 30.7723C64.4266 30.7723 59.2344 26.174 59.2344 20.4162Z" fill="white"/>
<path d="M44.549 13.4027C50.6922 13.4027 55.6723 8.93779 55.6723 3.43009C55.6723 -2.07761 50.6922 -6.54248 44.549 -6.54248C38.4058 -6.54248 33.4258 -2.07761 33.4258 3.43009C33.4258 8.93779 38.4058 13.4027 44.549 13.4027Z" fill="#46BEB7"/>
<path fill-rule="evenodd" clip-rule="evenodd" d="M44.5498 -6.15915C38.5779 -6.15915 33.8101 -1.82769 33.8101 3.42986C33.8101 8.6874 38.5779 13.0189 44.5498 13.0189C50.5216 13.0189 55.2895 8.6874 55.2895 3.42986C55.2895 -1.82769 50.5216 -6.15915 44.5498 -6.15915ZM33.043 3.42986C33.043 -2.32799 38.2352 -6.92627 44.5498 -6.92627C50.8644 -6.92627 56.0566 -2.32799 56.0566 3.42986C56.0566 9.18771 50.8644 13.786 44.5498 13.786C38.2352 13.786 33.043 9.18771 33.043 3.42986Z" fill="white"/>
</g>
<path d="M67.1899 0.0219882H71.5077C71.5077 0.0110294 71.5077 5.78635 71.5077 5.78635L71.8145 5.65484L72.1214 5.52333C73.0967 5.17265 74.094 4.98635 75.1131 4.98635C76.1323 4.98635 77.1405 5.16169 78.1159 5.52333C79.0583 5.87402 79.9131 6.40005 80.6693 7.10141C81.4145 7.78086 81.9953 8.58086 82.4117 9.50141C82.8391 10.422 83.0474 11.4192 83.0474 12.4713C83.0474 13.5233 82.8391 14.5534 82.4227 15.4521C82.0063 16.3507 81.4255 17.1617 80.6583 17.863C79.8912 18.5644 79.0364 19.0904 78.1049 19.4411C77.1625 19.8137 76.1542 20 75.1022 20C74.0501 20 72.4173 19.6712 71.1899 19.0137C69.9625 18.3671 68.9871 17.4685 68.2639 16.3288C67.5406 15.211 67.1789 13.9507 67.168 12.5589V0.0219882H67.1899ZM72.5926 14.9808C73.3049 15.6822 74.1488 16.0329 75.1241 16.0329C76.0994 16.0329 76.9542 15.6822 77.6666 14.9808C78.3898 14.2795 78.7515 13.4356 78.7515 12.4603C78.7515 11.485 78.5871 11.2329 78.2474 10.7069C77.9186 10.1699 77.4693 9.7425 76.9104 9.41373C76.3625 9.09592 75.7597 8.93154 75.1241 8.93154C74.4885 8.93154 73.9077 9.09592 73.3488 9.41373C72.7899 9.73154 72.3405 10.1589 72.0118 10.7069C71.683 11.2329 71.5077 11.8247 71.5077 12.4603C71.5077 13.4356 71.8693 14.2795 72.5926 14.9808Z" fill="#014E8B"/>
<mask id="mask3_67_7512" style="mask-type:luminance" maskUnits="userSpaceOnUse" x="67" y="0" width="17" height="20">
<path d="M67.1899 0.0219882H71.5077C71.5077 0.0110294 71.5077 5.78635 71.5077 5.78635L71.8145 5.65484L72.1214 5.52333C73.0967 5.17265 74.094 4.98635 75.1131 4.98635C76.1323 4.98635 77.1405 5.16169 78.1159 5.52333C79.0583 5.87402 79.9131 6.40005 80.6693 7.10141C81.4145 7.78086 81.9953 8.58086 82.4117 9.50141C82.8391 10.422 83.0474 11.4192 83.0474 12.4713C83.0474 13.5233 82.8391 14.5534 82.4227 15.4521C82.0063 16.3507 81.4255 17.1617 80.6583 17.863C79.8912 18.5644 79.0364 19.0904 78.1049 19.4411C77.1625 19.8137 76.1542 20 75.1022 20C74.0501 20 72.4173 19.6712 71.1899 19.0137C69.9625 18.3671 68.9871 17.4685 68.2639 16.3288C67.5406 15.211 67.1789 13.9507 67.168 12.5589V0.0219882H67.1899ZM72.5926 14.9808C73.3049 15.6822 74.1488 16.0329 75.1241 16.0329C76.0994 16.0329 76.9542 15.6822 77.6666 14.9808C78.3898 14.2795 78.7515 13.4356 78.7515 12.4603C78.7515 11.485 78.5871 11.2329 78.2474 10.7069C77.9186 10.1699 77.4693 9.7425 76.9104 9.41373C76.3625 9.09592 75.7597 8.93154 75.1241 8.93154C74.4885 8.93154 73.9077 9.09592 73.3488 9.41373C72.7899 9.73154 72.3405 10.1589 72.0118 10.7069C71.683 11.2329 71.5077 11.8247 71.5077 12.4603C71.5077 13.4356 71.8693 14.2795 72.5926 14.9808Z" fill="white"/>
</mask>
<g mask="url(#mask3_67_7512)">
<path d="M70.8498 30.2791C76.993 30.2791 81.9731 25.8142 81.9731 20.3066C81.9731 14.7989 76.993 10.334 70.8498 10.334C64.7066 10.334 59.7266 14.7989 59.7266 20.3066C59.7266 25.8142 64.7066 30.2791 70.8498 30.2791Z" fill="#46BEB7"/>
<path fill-rule="evenodd" clip-rule="evenodd" d="M70.8506 10.7178C64.8787 10.7178 60.1109 15.0493 60.1109 20.3068C60.1109 25.5644 64.8787 29.8958 70.8506 29.8958C76.8224 29.8958 81.5903 25.5644 81.5903 20.3068C81.5903 15.0493 76.8224 10.7178 70.8506 10.7178ZM59.3438 20.3068C59.3438 14.549 64.536 9.95068 70.8506 9.95068C77.1651 9.95068 82.3574 14.549 82.3574 20.3068C82.3574 26.0647 77.1651 30.6629 70.8506 30.6629C64.536 30.6629 59.3438 26.0647 59.3438 20.3068Z" fill="white"/>
</g>
<path d="M89.7218 15.9889H89.9629C91.0588 15.956 91.6177 15.1779 91.6177 13.6766V5.51221H95.9465V13.6766C95.9465 17.6437 93.952 19.7478 89.9629 19.967H89.7218C85.7328 19.7478 83.7383 17.6546 83.7383 13.6766V5.51221H88.067V13.6766C88.067 15.1889 88.615 15.956 89.7218 15.9889Z" fill="#014E8B"/>
<mask id="mask4_67_7512" style="mask-type:luminance" maskUnits="userSpaceOnUse" x="83" y="5" width="13" height="15">
<path d="M89.7218 15.9889H89.9629C91.0588 15.956 91.6177 15.1779 91.6177 13.6766V5.51221H95.9465V13.6766C95.9465 17.6437 93.952 19.7478 89.9629 19.967H89.7218C85.7328 19.7478 83.7383 17.6546 83.7383 13.6766V5.51221H88.067V13.6766C88.067 15.1889 88.615 15.956 89.7218 15.9889Z" fill="white"/>
</mask>
<g mask="url(#mask4_67_7512)">
<path fill-rule="evenodd" clip-rule="evenodd" d="M94.676 -10.4768C100.802 -10.9918 106.128 -6.94801 106.588 -1.45762C107.049 4.03277 102.457 8.8985 96.3308 9.40261C90.2048 9.90672 84.8788 5.87386 84.4185 0.383466C83.9582 -5.10693 88.55 -9.97267 94.676 -10.4768Z" fill="#46BEB7"/>
<path fill-rule="evenodd" clip-rule="evenodd" d="M106.207 -1.42547C105.768 -6.66744 100.663 -10.5951 94.7091 -10.0945L94.7084 -10.0944C88.7536 -9.60438 84.3623 -4.88952 84.8016 0.351532C85.241 5.59292 90.3449 9.51052 96.3003 9.02045C102.255 8.53043 106.646 3.81558 106.207 -1.42547ZM94.6451 -10.8589C100.943 -11.3883 106.49 -7.22828 106.971 -1.48956C107.453 4.25018 102.66 9.26679 96.3632 9.78499C90.0665 10.3031 84.5183 6.15501 84.0372 0.415617C83.556 -5.32401 88.3481 -10.3405 94.6451 -10.8589Z" fill="white"/>
</g>
<path d="M101.107 5.52344V19.5618H96.7891V5.5344H101.107V5.52344Z" fill="#014E8B"/>
<mask id="mask5_67_7512" style="mask-type:luminance" maskUnits="userSpaceOnUse" x="96" y="5" width="6" height="15">
<path d="M101.107 5.52344V19.5618H96.7891V5.5344H101.107V5.52344Z" fill="white"/>
</mask>
<g mask="url(#mask5_67_7512)">
<path fill-rule="evenodd" clip-rule="evenodd" d="M94.0901 -10.2575C100.216 -10.7726 105.542 -6.72877 106.002 -1.23838C106.463 4.25201 101.871 9.11774 95.7449 9.62185C89.6188 10.1369 84.2928 6.0931 83.8326 0.602705C83.3723 -4.88769 87.9641 -9.75343 94.0901 -10.2575Z" fill="#46BEB7"/>
<path fill-rule="evenodd" clip-rule="evenodd" d="M105.621 -1.20623C105.182 -6.4482 100.077 -10.3758 94.1231 -9.87522L94.1224 -9.87516C88.1676 -9.38514 83.7763 -4.67028 84.2157 0.570768C84.6552 5.81274 89.7594 9.74036 95.7136 9.23974L95.7143 9.23969C101.669 8.74967 106.06 4.03481 105.621 -1.20623ZM94.0592 -10.6397C100.357 -11.169 105.904 -7.00904 106.385 -1.27032C106.867 4.46921 102.075 9.48567 95.7779 10.0042C89.4801 10.5337 83.9324 6.37367 83.4513 0.634853C82.9701 -5.10477 87.7621 -10.1213 94.0592 -10.6397Z" fill="white"/>
</g>
<path d="M101.797 0.0986374H106.115C106.115 0.0876786 106.115 19.5068 106.115 19.5068L101.797 19.5616V0.0986374Z" fill="#014E8B"/>
<mask id="mask6_67_7512" style="mask-type:luminance" maskUnits="userSpaceOnUse" x="101" y="0" width="6" height="20">
<path d="M101.797 0.0986374H106.115C106.115 0.0876786 106.115 19.5068 106.115 19.5068L101.797 19.5616V0.0986374Z" fill="white"/>
</mask>
<g mask="url(#mask6_67_7512)">
<path fill-rule="evenodd" clip-rule="evenodd" d="M94.0901 -10.2575C100.216 -10.7726 105.542 -6.72877 106.002 -1.23838C106.463 4.25201 101.871 9.11774 95.7449 9.62185C89.6188 10.1369 84.2928 6.0931 83.8326 0.602705C83.3723 -4.88769 87.9641 -9.75343 94.0901 -10.2575Z" fill="#46BEB7"/>
<path fill-rule="evenodd" clip-rule="evenodd" d="M105.621 -1.20623C105.182 -6.4482 100.077 -10.3758 94.1231 -9.87522L94.1224 -9.87516C88.1676 -9.38514 83.7763 -4.67028 84.2157 0.570768C84.6552 5.81274 89.7594 9.74036 95.7136 9.23974L95.7143 9.23969C101.669 8.74967 106.06 4.03481 105.621 -1.20623ZM94.0592 -10.6397C100.357 -11.169 105.904 -7.00904 106.385 -1.27032C106.867 4.46921 102.075 9.48567 95.7779 10.0042C89.4801 10.5337 83.9324 6.37367 83.4513 0.634853C82.9701 -5.10477 87.7621 -10.1213 94.0592 -10.6397Z" fill="white"/>
</g>
<path d="M122.665 12.5589C122.665 13.9506 122.292 15.1999 121.569 16.3287C120.845 17.4684 119.87 18.3671 118.643 19.0136C117.415 19.6712 116.111 19.9999 114.73 19.9999C113.35 19.9999 112.67 19.8136 111.728 19.441C110.785 19.0903 109.941 18.5643 109.174 17.863C108.418 17.1616 107.826 16.3506 107.41 15.452C106.993 14.5534 106.785 13.5561 106.785 12.4712C106.785 11.3863 106.993 10.4219 107.421 9.50134C107.837 8.59175 108.418 7.79175 109.163 7.10134C109.919 6.41093 110.774 5.88491 111.717 5.52326C112.692 5.17258 113.689 4.98628 114.719 4.98628C115.75 4.98628 116.736 5.16162 117.711 5.52326L118.018 5.65477L118.325 5.78628V0H122.643V12.5479L122.665 12.5589ZM118.347 12.4602C118.347 11.8246 118.182 11.2328 117.843 10.7068C117.514 10.1698 117.065 9.74243 116.506 9.41366C115.958 9.09585 115.366 8.93148 114.73 8.93148C114.095 8.93148 113.503 9.09585 112.944 9.41366C112.385 9.73147 111.936 10.1589 111.607 10.7068C111.278 11.2328 111.103 11.8246 111.103 12.4602C111.103 13.4356 111.465 14.2794 112.188 14.9808C112.9 15.6821 113.744 16.0328 114.73 16.0328C115.717 16.0328 116.55 15.6821 117.262 14.9808C117.985 14.2794 118.347 13.4356 118.347 12.4602Z" fill="#014E8B"/>
<mask id="mask7_67_7512" style="mask-type:luminance" maskUnits="userSpaceOnUse" x="106" y="0" width="17" height="20">
<path d="M122.665 12.5589C122.665 13.9506 122.292 15.1999 121.569 16.3287C120.845 17.4684 119.87 18.3671 118.643 19.0136C117.415 19.6712 116.111 19.9999 114.73 19.9999C113.35 19.9999 112.67 19.8136 111.728 19.441C110.785 19.0903 109.941 18.5643 109.174 17.863C108.418 17.1616 107.826 16.3506 107.41 15.452C106.993 14.5534 106.785 13.5561 106.785 12.4712C106.785 11.3863 106.993 10.4219 107.421 9.50134C107.837 8.59175 108.418 7.79175 109.163 7.10134C109.919 6.41093 110.774 5.88491 111.717 5.52326C112.692 5.17258 113.689 4.98628 114.719 4.98628C115.75 4.98628 116.736 5.16162 117.711 5.52326L118.018 5.65477L118.325 5.78628V0H122.643V12.5479L122.665 12.5589ZM118.347 12.4602C118.347 11.8246 118.182 11.2328 117.843 10.7068C117.514 10.1698 117.065 9.74243 116.506 9.41366C115.958 9.09585 115.366 8.93148 114.73 8.93148C114.095 8.93148 113.503 9.09585 112.944 9.41366C112.385 9.73147 111.936 10.1589 111.607 10.7068C111.278 11.2328 111.103 11.8246 111.103 12.4602C111.103 13.4356 111.465 14.2794 112.188 14.9808C112.9 15.6821 113.744 16.0328 114.73 16.0328C115.717 16.0328 116.55 15.6821 117.262 14.9808C117.985 14.2794 118.347 13.4356 118.347 12.4602Z" fill="white"/>
</mask>
<g mask="url(#mask7_67_7512)">
<path d="M122.03 21.5125C128.173 21.5125 133.153 17.0476 133.153 11.54C133.153 6.03225 128.173 1.56738 122.03 1.56738C115.886 1.56738 110.906 6.03225 110.906 11.54C110.906 17.0476 115.886 21.5125 122.03 21.5125Z" fill="#FE8E16"/>
<path fill-rule="evenodd" clip-rule="evenodd" d="M122.03 1.95071C116.058 1.95071 111.291 6.28218 111.291 11.5397C111.291 16.7973 116.058 21.1287 122.03 21.1287C128.002 21.1287 132.77 16.7973 132.77 11.5397C132.77 6.28218 128.002 1.95071 122.03 1.95071ZM110.523 11.5397C110.523 5.78187 115.716 1.18359 122.03 1.18359C128.345 1.18359 133.537 5.78187 133.537 11.5397C133.537 17.2976 128.345 21.8959 122.03 21.8959C115.716 21.8959 110.523 17.2976 110.523 11.5397Z" fill="white"/>
</g>
<path d="M35.4189 19.6053C35.4518 19.5834 35.4846 19.5615 35.5175 19.5396C35.5504 19.5177 35.5942 19.5067 35.6271 19.4848C35.66 19.4738 35.7038 19.4519 35.7367 19.43C35.7586 19.43 35.7586 19.419 35.7696 19.3971C35.7696 19.3752 35.8024 19.3533 35.8244 19.3533V18.9807C35.7805 19.0464 35.6819 18.9807 35.7257 18.9259C35.7915 18.8053 35.8244 18.6738 35.8244 18.5314C35.8244 18.4766 35.8244 18.4218 35.8244 18.356V18.2683C35.8244 18.2683 35.8024 18.2464 35.8024 18.2245C35.8024 18.0601 35.7586 17.9177 35.6929 17.7752C35.6819 17.7423 35.6929 17.7094 35.7148 17.6985C35.7367 17.6875 35.7805 17.6985 35.7915 17.7204C35.7915 17.7204 35.7915 17.7314 35.7915 17.7423C35.7915 17.7423 35.7915 17.7423 35.7915 17.7314C35.7915 17.7314 35.7915 17.7314 35.8024 17.7314V17.4464C35.7476 17.567 35.66 17.6546 35.5285 17.7094C35.4956 17.7204 35.4627 17.6985 35.4518 17.6656C35.4518 17.6327 35.4627 17.5999 35.4956 17.5889C35.7476 17.4903 35.7586 17.1725 35.7805 16.9423C35.7805 16.9204 35.7805 16.9094 35.8024 16.8985V16.1094C35.8024 16.1094 35.7915 16.1094 35.7805 16.1094C35.7476 16.1094 35.7148 16.0875 35.7257 16.0547C35.7257 16.0547 35.7257 16.0546 35.7257 16.0437C35.7257 16.0327 35.7148 16.0218 35.7038 16.0108C35.6929 15.9779 35.6819 15.9451 35.6819 15.9122C35.6819 15.8574 35.6819 15.8026 35.6819 15.7478C35.6929 15.6711 35.7476 15.6163 35.8134 15.5834V13.841C35.7915 13.8848 35.7586 13.9177 35.7257 13.9615C35.6819 14.0163 35.5942 13.9396 35.6381 13.8738C35.7476 13.7423 35.7805 13.5999 35.7586 13.4355C35.7367 13.2711 35.6819 13.1177 35.6819 12.9533C35.6819 12.8766 35.8024 12.8766 35.8024 12.9533C35.8024 12.9971 35.8024 13.041 35.8134 13.0848V12.3944C35.7038 12.504 35.5833 12.6026 35.4627 12.7012C35.3641 12.7779 35.2107 12.7122 35.1559 12.6136C35.0901 12.493 35.1449 12.3615 35.2326 12.2848C35.2655 12.2519 35.2983 12.23 35.3312 12.1971C35.3312 12.1971 35.3422 12.1971 35.3422 12.1862C35.3422 12.1862 35.3422 12.1862 35.3531 12.1862C35.375 12.1752 35.386 12.1533 35.4079 12.1423C35.4737 12.0875 35.5394 12.0218 35.5942 11.956C35.66 11.8793 35.6929 11.8464 35.7367 11.7588C35.7367 11.7478 35.7476 11.7259 35.7586 11.7149L35.7696 11.6711C35.7696 11.6492 35.7805 11.6273 35.7915 11.6053C35.7915 11.6053 35.7915 11.6054 35.7915 11.5944C35.7915 11.5725 35.7915 11.5396 35.7915 11.5177C35.7915 11.5177 35.7915 11.5177 35.7915 11.5067C35.7915 11.4738 35.7805 11.441 35.7696 11.3971C35.7696 11.3752 35.7586 11.3533 35.7476 11.3314C35.7476 11.3314 35.7476 11.3095 35.7367 11.2985L35.7148 11.2547C35.7148 11.2328 35.6929 11.2218 35.6929 11.1999C35.6709 11.156 35.649 11.1122 35.6271 11.0684L35.6052 11.0355C35.6052 11.0245 35.5833 11.0136 35.5723 11.0026C35.5613 10.9917 35.5504 10.9807 35.5394 10.9588L35.5175 10.9369C35.5065 10.9369 35.4956 10.9259 35.4846 10.9149C35.3641 10.8821 35.2983 10.7396 35.3312 10.6191C35.3641 10.4985 35.4956 10.4108 35.6052 10.4437C35.6929 10.4656 35.7586 10.5204 35.8244 10.5862V10.2245C35.8244 10.2026 35.8134 10.1697 35.8024 10.1478C35.7696 10.0821 35.7148 10.0382 35.6709 9.97248C35.66 9.95056 35.649 9.97248 35.6381 9.95056C35.6271 9.98344 35.6381 9.92865 35.5942 9.95056C35.5613 9.96152 35.5285 9.95056 35.5175 9.92864C35.5065 9.90673 35.5175 9.86289 35.5394 9.85193L35.6161 9.87385C35.6161 9.86289 35.6161 9.85193 35.6271 9.84097C35.6381 9.8081 35.649 9.76426 35.649 9.73139C35.649 9.64372 35.6161 9.567 35.5942 9.47933C35.5942 9.44646 35.5285 9.39166 35.5504 9.3807C35.5504 9.35878 35.5504 9.34782 35.5504 9.32591C35.5504 9.27111 35.5504 9.20536 35.5504 9.15057C35.5613 9.11769 35.5723 9.08482 35.5833 9.0629C35.6161 9.0081 35.66 8.96426 35.7038 8.92043C35.7367 8.90947 35.7586 8.89851 35.7915 8.8766V7.69304C35.6929 7.62729 35.6271 7.50674 35.6271 7.37523C35.6271 7.17797 35.5942 6.99167 35.5833 6.79441C35.5613 6.57523 35.5723 6.35606 35.6271 6.13688C35.649 6.02729 35.7257 5.95057 35.8024 5.90674V5.66565C35.7257 5.76428 35.649 5.85195 35.5613 5.93962C35.4627 6.04921 35.3093 6.08208 35.1778 6.01633C35.0463 5.95057 34.9696 5.81907 34.9586 5.66565C34.9367 5.24921 34.9805 4.83277 35.0024 4.41634C34.9696 4.41634 34.9367 4.41634 34.9038 4.41634C34.849 4.41634 34.7942 4.41634 34.7285 4.39442C34.6189 4.3725 34.4983 4.3725 34.3887 4.3725C34.3778 4.3725 34.3559 4.3725 34.3449 4.35059C31.7148 5.19442 29.7422 8.28482 29.7422 11.9232C29.7422 15.5615 31.0901 19.2437 35.3203 19.704C35.3203 19.693 35.3312 19.6711 35.3422 19.6711L35.4189 19.6053Z" fill="#095179"/>
<path d="M33.5701 8.8547C33.4824 8.89854 33.3838 8.94237 33.2852 8.97525C33.2194 9.00813 33.1427 9.03004 33.0769 9.05196C32.9235 9.0958 32.803 9.05196 32.6934 8.93142C32.5838 8.81087 32.5728 8.67936 32.6167 8.53689C32.7482 8.13142 32.9673 7.80265 33.3399 7.57252C33.4495 7.50676 33.5591 7.41909 33.6578 7.33142C33.6906 7.29854 33.7235 7.26567 33.7564 7.23279C33.7564 7.23279 33.7564 7.21088 33.7454 7.19992C33.6906 7.19992 33.6358 7.19991 33.581 7.22183C33.2961 7.26567 33.0989 7.11224 33.0879 6.82731C33.0879 6.72868 33.0879 6.63005 33.0879 6.53142C33.1317 6.09307 33.4934 5.80814 33.9317 5.78622C33.9427 5.78622 33.9536 5.78622 33.9646 5.78622C34.0304 5.77526 34.0961 5.76431 34.1619 5.75335C34.129 5.68759 34.1071 5.61088 34.0632 5.54513C33.9536 5.3917 33.9646 5.36978 34.129 5.29307C34.3262 5.19444 34.5235 5.09581 34.7098 4.98623C34.8194 4.93143 34.8523 4.8328 34.8084 4.71225C34.7756 4.63554 34.7208 4.60266 34.666 4.66842C34.5235 4.85472 34.3153 4.88759 34.0961 4.92047C33.9427 4.94239 33.8112 5.0191 33.8002 5.21636C33.6687 5.10677 33.6358 4.85472 33.7454 4.73417C34.2386 4.15335 35.1262 4.10951 35.6413 4.778C35.6523 4.78896 35.6523 4.81089 35.6632 4.84376C35.5427 4.90952 35.4331 4.86568 35.3016 4.8328C35.3345 4.87663 35.3564 4.92047 35.3893 4.95335C35.6961 5.2054 35.9372 5.50129 36.1125 5.86294C36.2221 6.09307 36.2331 6.31225 36.0687 6.54239C35.9372 6.72869 35.992 6.95882 36.003 7.16704C36.003 7.21087 36.0139 7.24375 36.0249 7.28759C36.1345 7.60539 36.1454 7.9232 36.1345 8.25197C36.1345 8.54786 36.1345 8.84374 36.1345 9.13963C36.1345 9.18347 36.1345 9.23827 36.1235 9.2821C36.0577 9.54511 36.0139 9.56703 35.7947 9.4136C35.2358 9.041 34.6221 9.13963 34.1619 9.45744C34.0304 9.54511 33.8989 9.64374 33.7783 9.73141C33.7345 9.76429 33.6906 9.78621 33.6468 9.81908C33.6578 9.83004 33.6687 9.85196 33.6906 9.86292C33.7345 9.841 33.7783 9.83004 33.8221 9.80813C34.3043 9.57799 34.8084 9.50128 35.3345 9.6547C35.6304 9.74237 35.8714 9.92867 36.0358 10.1917C36.2221 10.4766 36.1235 10.8383 35.8386 11.0465C35.6413 11.1889 35.4331 11.2547 35.181 11.2328C34.8304 11.2109 34.4906 11.2109 34.1399 11.2328C33.9317 11.2328 33.7235 11.2985 33.5153 11.2985C32.8249 11.3314 32.2769 10.5862 32.6715 9.90675C32.8687 9.55607 33.1208 9.23826 33.4495 8.99717C33.4934 8.96429 33.5262 8.92046 33.5591 8.88758C33.5591 8.87662 33.5372 8.86566 33.5372 8.8547H33.5701ZM34.7098 5.58896C34.7098 5.62184 34.7317 5.65471 34.7317 5.68759C34.7317 5.77526 34.7646 5.86294 34.7536 5.93965C34.7098 6.18074 34.4797 6.34512 34.2167 6.36704C34.0413 6.378 33.8769 6.38896 33.7016 6.38896C33.6578 6.38896 33.6249 6.38896 33.5591 6.39992C33.7673 6.78348 34.1071 6.65197 34.4139 6.66293C34.3153 6.87115 34.2714 7.06841 34.3701 7.28759C34.392 7.25471 34.4139 7.24375 34.4139 7.22183C34.4687 6.98074 34.6221 6.80539 34.7756 6.61909C34.918 6.44375 34.9947 6.2465 34.9728 6.02732C34.9509 5.84102 34.8632 5.68759 34.6988 5.56704L34.7098 5.58896ZM33.4715 8.2958C33.5262 8.26293 33.5701 8.24101 33.603 8.21909C33.9098 8.03279 34.2276 7.9232 34.5783 8.1095C34.7317 8.18621 34.8632 8.30676 35.0057 8.40539C35.0495 8.43827 35.0934 8.44923 35.1482 8.46019C35.1482 8.40539 35.181 8.33964 35.1591 8.2958C35.1262 8.20813 35.0605 8.12046 35.0057 8.04375C34.8961 7.89032 34.918 7.71498 35.0495 7.59443C35.0714 7.57252 35.0934 7.5506 35.1262 7.50676C35.0824 7.50676 35.0495 7.50676 35.0386 7.50676C34.9071 7.58348 34.7865 7.66019 34.655 7.7369C34.6112 7.75882 34.5564 7.79169 34.5125 7.79169C34.4249 7.79169 34.3262 7.76978 34.2386 7.75882C33.9098 7.71498 33.603 7.89033 33.4715 8.18622C33.4715 8.20813 33.4715 8.24101 33.4715 8.28484V8.2958Z" fill="#E86031"/>
<path d="M34.6753 12.8545C34.8397 13.1503 35.0808 13.3147 35.3548 13.4572C35.5191 13.5449 35.6835 13.6325 35.815 13.7531C36.1986 14.0928 36.3191 14.5421 36.2424 15.0353C36.2205 15.1997 36.1548 15.364 36.0671 15.5065C35.9575 15.7038 35.7493 15.7257 35.5849 15.5832C35.4753 15.4846 35.3767 15.364 35.2781 15.2654C35.1794 15.1668 35.0698 15.0681 34.9602 14.9695C34.8287 14.8709 34.6753 14.8161 34.5 14.8271C34.226 14.849 34.0397 14.7284 33.9082 14.5092C33.7876 14.2901 33.6671 14.0709 33.5575 13.8408C33.2287 13.1942 32.6808 12.8764 31.9685 12.7668C31.3219 12.6682 30.6863 12.7558 30.0507 12.8545C29.8753 12.8873 29.7 12.8873 29.5356 12.8873C29.4151 12.8873 29.3274 12.7887 29.2836 12.6682C29.1849 12.4051 29.152 12.1421 29.2178 11.8682C29.2836 11.5723 29.4589 11.4517 29.7548 11.5284C30.0616 11.6052 30.3246 11.5504 30.5767 11.3641C30.6534 11.2983 30.752 11.2545 30.8507 11.2106C30.8835 11.1887 30.9383 11.2106 30.9822 11.2106C30.9822 11.2435 30.9712 11.2873 30.9603 11.3202C30.9274 11.4188 30.8835 11.5175 30.8507 11.6161C30.8397 11.6709 30.8178 11.7476 30.9055 11.7695C30.9822 11.7914 31.0479 11.7695 31.0918 11.6928C31.1575 11.5723 31.2233 11.4408 31.289 11.3202C31.3767 11.1449 31.5301 11.0134 31.7055 10.9147C31.8589 10.8271 32.0342 10.838 32.1877 10.9147C32.352 10.9915 32.5164 11.0791 32.6698 11.1887C32.8561 11.3093 33.0315 11.4517 33.2178 11.5942C33.3164 11.6709 33.415 11.7038 33.5466 11.7038C33.9849 11.7038 34.4342 11.7038 34.8726 11.7257C35.2671 11.7476 35.6287 11.8901 35.9465 12.1202C36.1109 12.2408 36.2534 12.3942 36.2534 12.6243C36.2534 12.9312 35.9794 13.1284 35.6835 13.0408C35.4096 12.9531 35.1465 12.8545 34.8507 12.8764C34.8068 12.8764 34.7739 12.8764 34.6972 12.8764L34.6753 12.8545Z" fill="#E86031"/>
<path d="M34.3668 16C34.1805 16.0219 34.0161 16.0438 33.8408 16.0657C33.1942 16.1424 32.6901 15.7917 32.5586 15.1671C32.5148 14.9698 32.5038 14.7726 32.4709 14.5643C32.4709 14.5095 32.46 14.4657 32.4161 14.4109C32.3723 14.4767 32.3285 14.5424 32.2737 14.5972C32.1751 14.7068 32.0874 14.8164 31.9778 14.9041C31.7696 15.0684 31.5066 15.0575 31.3093 14.8493C31.1449 14.6849 31.0134 14.4767 30.8929 14.2794C30.7942 14.115 30.7285 13.9287 30.6518 13.7534C30.6299 13.7095 30.6079 13.6657 30.5751 13.589C30.5422 13.6657 30.5203 13.7095 30.4983 13.7534C30.3888 14.0493 30.1148 14.2465 29.8518 14.2465C29.6326 14.2465 29.4573 14.1369 29.3477 13.9397C29.2381 13.7424 29.249 13.5342 29.3477 13.3369C29.3696 13.3041 29.4244 13.2712 29.4682 13.2712C29.8627 13.2712 30.2244 13.1616 30.597 13.052C31.0463 12.9095 31.4846 12.9424 31.8901 13.1835C31.923 13.2054 31.9449 13.2274 31.9778 13.2602C31.9011 13.315 31.8134 13.3479 31.7696 13.4027C31.7148 13.4685 31.6709 13.5452 31.649 13.6219C31.6271 13.6876 31.6819 13.7095 31.7367 13.6767C31.7805 13.6548 31.8244 13.6219 31.8573 13.589C32.3175 13.2493 32.7449 13.3808 33.0408 13.8301C33.1614 14.0274 33.249 14.2465 33.3586 14.4438C33.4682 14.663 33.6216 14.8493 33.8408 14.9698C33.9504 15.0246 34.0709 15.0575 34.1915 15.0904C34.4545 15.1452 34.6846 15.2219 34.8381 15.4849C35.0134 15.8027 35.2983 15.9999 35.7038 15.989C35.7915 15.989 35.8353 16.0219 35.8682 16.0986C36.0216 16.4602 35.8682 16.9643 35.5504 17.2054C35.134 17.5232 34.6846 17.5452 34.2353 17.315C33.9942 17.1945 33.7751 17.052 33.5449 16.9205C33.5011 16.8986 33.4682 16.8767 33.4134 16.8438C33.3477 17.0739 33.4353 17.2273 33.6216 17.3917C33.3586 17.4136 33.1394 17.4136 32.9203 17.3369C32.5367 17.1945 32.3285 16.9095 32.2189 16.526C32.2079 16.4821 32.1641 16.4383 32.1422 16.3945C32.1093 16.4383 32.0545 16.4821 32.0326 16.526C32.0107 16.6027 31.9997 16.6904 31.9997 16.7671C31.9997 16.8438 31.9778 16.8657 31.9011 16.8767C31.1888 16.9095 30.5203 16.3506 30.4326 15.6493C30.4326 15.6383 30.4326 15.6273 30.4107 15.5945C30.3778 15.6383 30.3449 15.6712 30.323 15.715C30.1586 15.9342 30.0052 15.9452 29.8627 15.7479C29.7312 15.5616 29.6216 15.3534 29.5121 15.1452C29.7093 15.2767 29.9175 15.3534 30.1477 15.3862C30.2244 15.3862 30.3011 15.3862 30.3668 15.3862C30.5531 15.3643 30.7285 15.3643 30.9148 15.441C30.9586 15.463 31.0025 15.4739 31.0573 15.4849C31.0573 15.2109 30.9257 15.0684 30.6189 15.0356C30.4545 15.0137 30.2901 15.0356 30.1367 15.0027C29.9942 14.9808 29.8518 14.9041 29.7203 14.8493C29.6874 14.8383 29.6545 14.7945 29.6326 14.7616C29.5997 14.6958 29.5888 14.6191 29.5778 14.5534C29.6326 14.5534 29.6984 14.5205 29.7531 14.5315C30.0162 14.5643 30.2792 14.5753 30.5312 14.6301C30.9696 14.7287 31.2436 15.0904 31.2545 15.5397C31.2545 15.6712 31.3203 15.8027 31.3641 15.9342C31.3641 15.9671 31.4189 15.989 31.4627 16C31.4846 16 31.5175 15.9561 31.5285 15.9232C31.5504 15.8575 31.5614 15.7808 31.5833 15.7041C31.6271 15.4849 31.8025 15.3424 32.0435 15.3424C32.2189 15.3424 32.4271 15.5068 32.46 15.6931C32.5038 15.9561 32.5915 16.1862 32.8326 16.3178C32.9641 16.3835 33.1175 16.4383 33.2709 16.4493C33.5997 16.4493 33.9175 16.515 34.2024 16.6904C34.3778 16.7999 34.597 16.789 34.8271 16.7342C34.7175 16.6794 34.6408 16.6356 34.5641 16.5917C34.2792 16.4493 34.2353 16.3397 34.3559 16.0438C34.3559 16.0438 34.3559 16.0219 34.3559 15.989L34.3668 16Z" fill="#E86031"/>
<path d="M32.0778 9.54505C32.0997 9.73135 32.1545 9.90669 32.308 10.0272C32.4066 10.104 32.4504 10.1697 32.3847 10.2902C32.3518 10.356 32.3408 10.4437 32.3299 10.5204C32.3189 10.5861 32.286 10.5971 32.2203 10.5752C31.9025 10.4437 31.5847 10.5204 31.2778 10.63C30.9271 10.7505 30.5765 10.9039 30.2587 11.1012C30.0395 11.2437 29.8313 11.2108 29.645 11.0683C29.5025 10.9587 29.4148 10.6519 29.4696 10.4656C29.5025 10.3779 29.5463 10.2902 29.5902 10.2026C29.6011 10.2026 29.6121 10.2026 29.623 10.2135C29.634 10.3341 29.645 10.4546 29.6669 10.5752C29.6888 10.6519 29.7217 10.7286 29.7655 10.8053C29.7765 10.8272 29.8313 10.8382 29.8641 10.8601C29.8751 10.8272 29.908 10.7944 29.908 10.7615C29.9189 10.6629 29.9299 10.5642 29.9409 10.4656C29.9628 10.2683 30.0614 10.1807 30.2587 10.1478C30.5765 10.093 30.8724 10.2026 31.1682 10.2902C31.2121 10.3012 31.2559 10.3012 31.3326 10.3231C31.0915 10.0272 30.8176 9.87381 30.4778 9.81902C30.3244 9.7971 30.171 9.78614 30.0176 9.76422C29.9408 9.76422 29.9189 9.72039 29.908 9.64368C29.8861 9.29299 30.0066 8.97519 30.1819 8.6793C30.2915 8.50396 30.5217 8.47108 30.6751 8.61354C30.7956 8.72313 30.8943 8.84368 31.0148 8.94231C31.1682 9.06286 31.3436 9.16149 31.5189 9.27107C31.5518 9.29299 31.5956 9.29299 31.6285 9.29299C31.6285 9.29299 31.6285 9.27108 31.6395 9.26012C31.6176 9.22724 31.5847 9.19436 31.5628 9.16149C31.4313 8.92039 31.2669 8.67929 31.1682 8.42724C31.0696 8.1971 31.1463 7.96697 31.3217 7.76971C31.497 7.56149 31.7162 7.44094 31.9902 7.40807C32.1984 7.37519 32.3408 7.2656 32.4066 7.0793C32.4176 7.04642 32.4066 7.00259 32.4066 6.96971C32.3737 6.96971 32.3189 6.96971 32.297 6.99163C32.1655 7.11218 32.0121 7.14506 31.8367 7.12314C31.6504 7.10122 31.5628 7.00259 31.6395 6.82725C31.7052 6.67382 31.8039 6.54232 31.8915 6.39985C31.9354 6.3341 31.9902 6.26835 32.0559 6.16972C31.7929 6.16972 31.6504 6.30122 31.5189 6.46561C31.5518 6.21355 31.7052 6.08205 31.9244 5.99438C32.0669 5.93958 32.2203 5.87383 32.3408 5.7752C32.4504 5.68753 32.5491 5.56698 32.6148 5.43547C32.8121 5.05191 33.1408 4.86561 33.5354 4.72314C33.5354 4.76698 33.5244 4.7889 33.5134 4.81081C33.4367 4.99711 33.4696 5.1615 33.5792 5.32588C33.6559 5.43547 33.6449 5.46835 33.5244 5.52314C33.0532 5.7204 32.823 6.10396 32.7682 6.58615C32.7354 6.86012 32.7463 7.14506 32.7354 7.42999C32.7354 7.47382 32.7134 7.53957 32.6915 7.57245C32.2532 8.04368 32.1765 8.59163 32.3628 9.1834C32.4066 9.31491 32.4504 9.44642 32.4833 9.58888C32.4943 9.63272 32.4833 9.68751 32.4723 9.7423C32.4285 9.72039 32.3737 9.70943 32.3299 9.68751C32.2641 9.64367 32.2093 9.58888 32.1436 9.53409C32.1326 9.53409 32.1107 9.55601 32.0997 9.55601L32.0778 9.54505Z" fill="#E86031"/>
<path d="M29.6562 16.0986C30.0069 16.3288 30.3467 16.5699 30.6973 16.7781C31.1028 17.0192 31.5302 17.2274 32.0343 17.1836C32.1549 17.1726 32.2425 17.2384 32.3302 17.326C32.4288 17.4356 32.5165 17.5452 32.6371 17.6329C32.8672 17.8082 33.1193 17.8411 33.3823 17.7206C33.6453 17.6 33.8754 17.6 34.1494 17.6877C34.6644 17.863 35.1686 17.7644 35.6398 17.5342C35.7603 17.4685 35.8699 17.3918 35.9905 17.326C36.0124 17.4795 35.848 17.7425 35.6836 17.7973C35.4097 17.8849 35.1247 17.9616 34.8508 18.0603C34.7521 18.0931 34.6425 18.137 34.5549 18.1918C34.248 18.3671 33.9302 18.4986 33.5795 18.5315C33.1193 18.5753 32.7247 18.389 32.4727 18.0274C32.1439 17.5671 31.6946 17.3699 31.1576 17.3041C30.9494 17.2822 30.7521 17.2603 30.6206 17.063C30.5987 17.0301 30.522 17.0192 30.4672 16.9973C29.9741 16.8877 29.6782 16.5589 29.6672 16.0986H29.6562Z" fill="#E86031"/>
<path d="M33.5695 19.189C33.8654 19.2657 34.1723 19.3425 34.4791 19.4192C34.8408 19.5068 35.2134 19.5178 35.575 19.4192C35.7504 19.3644 35.8928 19.2548 35.9915 19.0575C35.849 19.1014 35.7394 19.1452 35.6298 19.1562C35.3997 19.1781 35.1586 19.211 34.9175 19.2C34.6654 19.1781 34.512 18.9918 34.523 18.7726C34.523 18.5973 34.6326 18.4657 34.8079 18.4219C34.8956 18.4 34.9942 18.389 35.0819 18.3781C35.3887 18.3342 35.6846 18.2356 35.9476 18.0712C35.9805 18.0493 36.0243 18.0603 36.0572 18.0493C36.0572 18.0932 36.0682 18.137 36.0572 18.1699C36.0463 18.2137 36.0134 18.2466 35.9805 18.2794C35.7504 18.4548 35.5093 18.5973 35.2024 18.6192C35.1586 18.6192 35.1257 18.6521 35.0819 18.663C35.1147 18.6959 35.1476 18.7397 35.1805 18.7616C35.3778 18.8384 35.586 18.8384 35.7942 18.8164C35.9038 18.8055 36.0134 18.8164 36.0682 18.926C36.123 19.0356 36.1011 19.1452 36.0243 19.2329C35.5421 19.737 35.1148 19.8794 34.4682 19.6712C34.1504 19.5726 33.8545 19.4082 33.5586 19.2767L33.5805 19.2L33.5695 19.189Z" fill="#E86031"/>
<path d="M33.3942 18.8711C33.3175 18.8711 33.2408 18.9039 33.175 18.9039C32.7586 18.9259 32.386 18.7724 32.0244 18.608C31.7394 18.4765 31.4764 18.3231 31.2792 18.0711C31.2134 17.9834 31.1476 17.8738 31.1038 17.7752C31.049 17.6656 31.0819 17.6217 31.2024 17.6437C31.575 17.6875 31.9257 17.7861 32.1887 18.0711C32.3093 18.2026 32.4298 18.345 32.5613 18.4765C32.7915 18.6848 33.0545 18.8163 33.3723 18.8272C33.3723 18.8272 33.3942 18.8272 33.4052 18.8382V18.8601L33.3942 18.8711Z" fill="#E86031"/>
<path d="M31.2548 6.95872C31.2548 7.07926 31.2767 7.17789 31.2767 7.28748C31.2767 7.34228 31.2548 7.40803 31.2219 7.4409C31.0575 7.61624 30.9479 7.82446 30.8712 8.04364C30.8493 8.09843 30.7945 8.16419 30.7397 8.18611C30.5425 8.28474 30.4548 8.22994 30.4658 8.01077C30.4986 7.53953 30.7616 7.21077 31.1671 6.98064C31.189 6.96968 31.2329 6.95871 31.2658 6.94775L31.2548 6.95872Z" fill="#E86031"/>
<path d="M33.4373 8.83273C33.3496 8.87657 33.251 8.92041 33.1523 8.95328C33.0866 8.98616 33.0099 9.00807 32.9441 9.02999C32.7907 9.07382 32.6702 9.02999 32.5606 8.90944C32.451 8.7889 32.44 8.65739 32.4838 8.51493C32.6154 8.10945 32.8345 7.78068 33.2071 7.55054C33.3167 7.48479 33.4263 7.39712 33.5249 7.30945C33.5578 7.27658 33.5907 7.2437 33.6236 7.21082C33.6236 7.21082 33.6236 7.1889 33.6126 7.17795C33.5578 7.17795 33.503 7.17795 33.4482 7.19986C33.1633 7.2437 32.966 7.09027 32.9551 6.80534C32.9551 6.70671 32.9551 6.60808 32.9551 6.50945C32.9989 6.0711 33.3606 5.78617 33.7989 5.76425C33.8099 5.76425 33.8208 5.76425 33.8318 5.76425C33.8975 5.75329 33.9633 5.74233 34.0291 5.73137C33.9962 5.66562 33.9743 5.58891 33.9304 5.52315C33.8208 5.36973 33.8318 5.34781 33.9962 5.2711C34.1934 5.17247 34.3907 5.07384 34.577 4.96425C34.6866 4.90946 34.7195 4.81083 34.6756 4.69028C34.6427 4.61357 34.5879 4.58069 34.5332 4.64644C34.3907 4.83274 34.1825 4.86563 33.9633 4.8985C33.8099 4.92042 33.6784 4.99713 33.6674 5.19439C33.5359 5.0848 33.503 4.83275 33.6126 4.7122C34.1058 4.13138 34.9934 4.08754 35.5085 4.75603C35.5195 4.76699 35.5195 4.78891 35.5304 4.82179C35.4099 4.88754 35.3003 4.8437 35.1688 4.81083C35.2017 4.85466 35.2236 4.8985 35.2564 4.93138C35.5633 5.18343 35.8044 5.47932 35.9797 5.84096C36.0893 6.0711 36.1003 6.29028 35.9359 6.52041C35.8044 6.70671 35.8592 6.93685 35.8701 7.14507C35.8701 7.18891 35.8811 7.22178 35.8921 7.26561C36.0016 7.58342 36.0126 7.90123 36.0016 8.22999C36.0016 8.52588 36.0016 8.82178 36.0016 9.11767C36.0016 9.1615 36.0016 9.21629 35.9907 9.26013C35.9249 9.52314 35.8811 9.54506 35.6619 9.39164C35.103 9.01904 34.4893 9.11766 34.0291 9.43547C33.8975 9.52314 33.766 9.62177 33.6455 9.70944C33.6017 9.74232 33.5578 9.76423 33.514 9.79711C33.5249 9.80807 33.5359 9.82999 33.5578 9.84095C33.6017 9.81903 33.6455 9.80807 33.6893 9.78615C34.1715 9.55602 34.6756 9.4793 35.2017 9.63273C35.4975 9.7204 35.7386 9.9067 35.903 10.1697C36.0893 10.4546 35.9907 10.8163 35.7058 11.0245C35.5085 11.167 35.3003 11.2327 35.0482 11.2108C34.6975 11.1889 34.3578 11.1889 34.0071 11.2108C33.7989 11.2108 33.5907 11.2766 33.3825 11.2766C32.6921 11.3094 32.1441 10.5642 32.5386 9.88479C32.7359 9.5341 32.988 9.21629 33.3167 8.9752C33.3606 8.94232 33.3934 8.89848 33.4263 8.86561C33.4263 8.85465 33.4044 8.84369 33.4044 8.83273H33.4373ZM34.5879 5.55603C34.5879 5.58891 34.6099 5.62178 34.6099 5.65466C34.6099 5.74233 34.6427 5.83 34.6318 5.90671C34.588 6.14781 34.3578 6.31219 34.0948 6.33411C33.9195 6.34507 33.7551 6.35603 33.5797 6.35603C33.5359 6.35603 33.503 6.35603 33.4373 6.36699C33.6455 6.75055 33.9852 6.61904 34.2921 6.63C34.1934 6.83822 34.1496 7.03548 34.2482 7.25466C34.2701 7.22178 34.2921 7.21082 34.2921 7.1889C34.3469 6.94781 34.5003 6.77246 34.6537 6.58616C34.7962 6.41082 34.8729 6.21357 34.851 5.99439C34.829 5.80809 34.7414 5.65466 34.577 5.53412L34.5879 5.55603ZM33.3386 8.27383C33.3934 8.24096 33.4373 8.21904 33.4701 8.19712C33.777 8.01082 34.0948 7.90123 34.4455 8.08753C34.5989 8.16424 34.7304 8.28479 34.8729 8.38342C34.9167 8.4163 34.9606 8.42726 35.0153 8.43821C35.0153 8.38342 35.0482 8.31767 35.0263 8.27383C34.9934 8.18616 34.9277 8.09849 34.8729 8.02178C34.7633 7.86836 34.7852 7.69301 34.9167 7.57246C34.9386 7.55054 34.9606 7.52863 34.9934 7.48479C34.9496 7.48479 34.9167 7.48479 34.9058 7.48479C34.7743 7.5615 34.6537 7.63821 34.5222 7.71493C34.4784 7.73684 34.4236 7.76972 34.3797 7.76972C34.2921 7.76972 34.1934 7.7478 34.1058 7.73684C33.777 7.69301 33.4701 7.86835 33.3386 8.16424C33.3386 8.18616 33.3386 8.21903 33.3386 8.26287V8.27383Z" fill="url(#paint0_linear_67_7512)"/>
<path d="M34.5542 12.833C34.7186 13.1289 34.9597 13.2932 35.2337 13.4357C35.3981 13.5234 35.5624 13.6111 35.6939 13.7316C36.0775 14.0713 36.1981 14.5206 36.1213 15.0138C36.0994 15.1782 36.0337 15.3426 35.946 15.485C35.8364 15.6823 35.6282 15.7042 35.4638 15.5617C35.3542 15.4631 35.2556 15.3426 35.157 15.2439C35.0583 15.1453 34.9487 15.0467 34.8392 14.948C34.7077 14.8494 34.5542 14.7946 34.3789 14.8056C34.1049 14.8275 33.9186 14.7069 33.7871 14.4878C33.6666 14.2686 33.546 14.0494 33.4364 13.8193C33.1077 13.1727 32.5597 12.8549 31.8474 12.7453C31.2008 12.6467 30.5652 12.7343 29.9296 12.833C29.7542 12.8659 29.5789 12.8659 29.4145 12.8659C29.294 12.8659 29.2063 12.7672 29.1625 12.6467C29.0638 12.3837 29.031 12.1206 29.0967 11.8467C29.1625 11.5508 29.3378 11.4302 29.6337 11.507C29.9405 11.5837 30.2036 11.5289 30.4556 11.3426C30.5323 11.2768 30.6309 11.233 30.7296 11.1891C30.7625 11.1672 30.8173 11.1891 30.8611 11.1891C30.8611 11.222 30.8501 11.2659 30.8392 11.2987C30.8063 11.3974 30.7625 11.496 30.7296 11.5946C30.7186 11.6494 30.6967 11.7261 30.7844 11.7481C30.8611 11.77 30.9268 11.7481 30.9707 11.6713C31.0364 11.5508 31.1022 11.4193 31.1679 11.2987C31.2556 11.1234 31.409 10.9919 31.5844 10.8933C31.7378 10.8056 31.9131 10.8165 32.0666 10.8933C32.2309 10.97 32.3953 11.0576 32.5488 11.1672C32.7351 11.2878 32.9104 11.4302 33.0967 11.5727C33.1953 11.6494 33.294 11.6823 33.4255 11.6823C33.8638 11.6823 34.3131 11.6823 34.7515 11.7042C35.146 11.7261 35.5076 11.8686 35.8255 12.0987C35.9898 12.2193 36.1323 12.3727 36.1323 12.6028C36.1323 12.9097 35.8583 13.1069 35.5624 13.0193C35.2885 12.9316 35.0255 12.833 34.7296 12.8549C34.6857 12.8549 34.6529 12.8549 34.5761 12.8549L34.5542 12.833Z" fill="url(#paint1_linear_67_7512)"/>
<path d="M34.2379 15.9672C34.0516 15.9892 33.8872 16.0111 33.7119 16.033C33.0653 16.1097 32.5612 15.759 32.4297 15.1344C32.3859 14.9371 32.3749 14.7398 32.342 14.5316C32.342 14.4768 32.3311 14.433 32.2872 14.3782C32.2434 14.444 32.1996 14.5097 32.1448 14.5645C32.0461 14.6741 31.9585 14.7837 31.8489 14.8713C31.6407 15.0357 31.3777 15.0248 31.1804 14.8166C31.016 14.6522 30.8845 14.444 30.764 14.2467C30.6653 14.0823 30.5996 13.896 30.5229 13.7207C30.5009 13.6768 30.479 13.633 30.4462 13.5563C30.4133 13.633 30.3914 13.6768 30.3694 13.7207C30.2599 14.0166 29.9859 14.2138 29.7229 14.2138C29.5037 14.2138 29.3283 14.1042 29.2188 13.907C29.1092 13.7097 29.1201 13.5015 29.2188 13.3042C29.2407 13.2713 29.2955 13.2385 29.3393 13.2385C29.7338 13.2385 30.0955 13.1289 30.4681 13.0193C30.9174 12.8768 31.3557 12.9097 31.7612 13.1508C31.7941 13.1727 31.816 13.1946 31.8489 13.2275C31.7722 13.2823 31.6845 13.3152 31.6407 13.37C31.5859 13.4357 31.542 13.5124 31.5201 13.5892C31.4982 13.6549 31.553 13.6768 31.6078 13.644C31.6516 13.622 31.6955 13.5892 31.7283 13.5563C32.1886 13.2166 32.616 13.3481 32.9119 13.7974C33.0324 13.9946 33.1201 14.2138 33.2297 14.4111C33.3393 14.6303 33.4927 14.8166 33.7119 14.9371C33.8215 14.9919 33.942 15.0248 34.0626 15.0576C34.3256 15.1124 34.5557 15.1892 34.7092 15.4522C34.8845 15.77 35.1694 15.9672 35.5749 15.9563C35.6626 15.9563 35.7064 15.9891 35.7393 16.0659C35.8927 16.4275 35.7393 16.9316 35.4215 17.1727C35.005 17.4905 34.5557 17.5124 34.1064 17.2823C33.8653 17.1618 33.6461 17.0193 33.416 16.8878C33.3722 16.8659 33.3393 16.8439 33.2845 16.8111C33.2187 17.0412 33.3064 17.1946 33.4927 17.359C33.2297 17.3809 33.0105 17.3809 32.7914 17.3042C32.4078 17.1617 32.1996 16.8768 32.09 16.4933C32.079 16.4494 32.0352 16.4056 32.0133 16.3618C31.9804 16.4056 31.9256 16.4494 31.9037 16.4933C31.8818 16.57 31.8708 16.6576 31.8708 16.7344C31.8708 16.8111 31.8489 16.833 31.7722 16.8439C31.0598 16.8768 30.3914 16.3179 30.3037 15.6166C30.3037 15.6056 30.3037 15.5946 30.2818 15.5618C30.2489 15.6056 30.216 15.6385 30.1941 15.6823C30.0297 15.9015 29.8763 15.9124 29.7338 15.7152C29.6023 15.5289 29.4927 15.3207 29.3831 15.1124C29.5804 15.2439 29.7886 15.3207 30.0188 15.3535C30.0955 15.3535 30.1722 15.3535 30.2379 15.3535C30.4242 15.3316 30.5996 15.3316 30.7859 15.4083C30.8297 15.4302 30.8736 15.4412 30.9283 15.4522C30.9283 15.1782 30.7968 15.0357 30.49 15.0028C30.3256 14.9809 30.1612 15.0029 30.0078 14.97C29.8653 14.9481 29.7229 14.8713 29.5914 14.8166C29.5585 14.8056 29.5256 14.7618 29.5037 14.7289C29.4708 14.6631 29.4599 14.5864 29.4489 14.5207C29.5037 14.5207 29.5694 14.4878 29.6242 14.4987C29.8872 14.5316 30.1503 14.5426 30.4023 14.5974C30.8407 14.696 31.1146 15.0576 31.1256 15.507C31.1256 15.6385 31.1914 15.77 31.2352 15.9015C31.2352 15.9344 31.29 15.9563 31.3338 15.9672C31.3557 15.9672 31.3886 15.9234 31.3996 15.8905C31.4215 15.8248 31.4325 15.7481 31.4544 15.6713C31.4982 15.4522 31.6735 15.3097 31.9146 15.3097C32.09 15.3097 32.2982 15.4741 32.3311 15.6604C32.3749 15.9234 32.4626 16.1535 32.7037 16.285C32.8352 16.3508 32.9886 16.4056 33.142 16.4165C33.4708 16.4165 33.7886 16.4823 34.0735 16.6576C34.2489 16.7672 34.4681 16.7563 34.6982 16.7015C34.5886 16.6467 34.5119 16.6028 34.4352 16.559C34.1503 16.4165 34.1064 16.307 34.227 16.0111C34.227 16.0111 34.227 15.9891 34.227 15.9563L34.2379 15.9672Z" fill="url(#paint2_linear_67_7512)"/>
<path d="M31.9567 9.52307C31.9787 9.70937 32.0334 9.88472 32.1869 10.0053C32.2855 10.082 32.3293 10.1477 32.2636 10.2683C32.2307 10.334 32.2197 10.4217 32.2088 10.4984C32.1978 10.5642 32.165 10.5751 32.0992 10.5532C31.7814 10.4217 31.4636 10.4984 31.1567 10.608C30.8061 10.7286 30.4554 10.882 30.1376 11.0792C29.9184 11.2217 29.7102 11.1888 29.5239 11.0464C29.3814 10.9368 29.2937 10.6299 29.3485 10.4436C29.3814 10.3559 29.4252 10.2683 29.4691 10.1806C29.48 10.1806 29.491 10.1806 29.502 10.1916C29.5129 10.3121 29.5239 10.4327 29.5458 10.5532C29.5677 10.6299 29.6006 10.7066 29.6444 10.7833C29.6554 10.8053 29.7102 10.8162 29.743 10.8381C29.754 10.8053 29.7869 10.7724 29.7869 10.7395C29.7978 10.6409 29.8088 10.5423 29.8198 10.4436C29.8417 10.2464 29.9403 10.1587 30.1376 10.1258C30.4554 10.071 30.7513 10.1806 31.0471 10.2683C31.091 10.2792 31.1348 10.2792 31.2115 10.3012C30.9704 10.0053 30.6965 9.85184 30.3567 9.79704C30.2033 9.77513 30.0499 9.76417 29.8965 9.74225C29.8198 9.74225 29.7978 9.69842 29.7869 9.62171C29.765 9.27102 29.8855 8.95322 30.0609 8.65733C30.1704 8.48198 30.4006 8.4491 30.554 8.59157C30.6745 8.70116 30.7732 8.82171 30.8937 8.92034C31.0471 9.04088 31.2225 9.13951 31.3978 9.2491C31.4307 9.27102 31.4745 9.27102 31.5074 9.27102C31.5074 9.27102 31.5074 9.2491 31.5184 9.23814C31.4965 9.20527 31.4636 9.17239 31.4417 9.13951C31.3102 8.89842 31.1458 8.65733 31.0471 8.40527C30.9485 8.17514 31.0252 7.945 31.2006 7.74774C31.3759 7.53952 31.5951 7.41897 31.8691 7.38609C32.0773 7.35322 32.2197 7.24363 32.2855 7.05733C32.2965 7.02445 32.2855 6.98062 32.2855 6.94774C32.2526 6.94774 32.1978 6.94774 32.1759 6.96966C32.0444 7.09021 31.891 7.12308 31.7156 7.10117C31.5293 7.07925 31.4417 6.98062 31.5184 6.80528C31.5841 6.65185 31.6828 6.52035 31.7704 6.37788C31.8143 6.31213 31.8691 6.24637 31.9348 6.14774C31.6718 6.14774 31.5293 6.27925 31.3978 6.44363C31.4307 6.19158 31.5841 6.06008 31.8033 5.9724C31.9458 5.91761 32.0992 5.85186 32.2197 5.75323C32.3293 5.66556 32.428 5.545 32.4937 5.4135C32.691 5.02994 33.0197 4.84364 33.4143 4.70117C33.4143 4.74501 33.4033 4.76693 33.3923 4.78885C33.3156 4.97515 33.3485 5.13953 33.4581 5.30391C33.5348 5.4135 33.5239 5.44638 33.4033 5.50117C32.9321 5.69843 32.7019 6.08199 32.6471 6.56418C32.6143 6.83815 32.6252 7.12308 32.6143 7.40801C32.6143 7.45185 32.5924 7.5176 32.5704 7.55048C32.1321 8.02171 32.0554 8.56965 32.2417 9.16143C32.2855 9.29294 32.3293 9.42445 32.3622 9.56691C32.3732 9.61075 32.3622 9.66554 32.3513 9.72034C32.3074 9.69842 32.2526 9.68746 32.2088 9.66554C32.143 9.62171 32.0882 9.56691 32.0225 9.51212C32.0115 9.51212 31.9896 9.53404 31.9787 9.53404L31.9567 9.52307Z" fill="url(#paint3_linear_67_7512)"/>
<path d="M29.5234 16.0659C29.8741 16.2961 30.2138 16.5372 30.5645 16.7454C30.97 16.9865 31.3974 17.1947 31.9015 17.1508C32.0221 17.1399 32.1097 17.2056 32.1974 17.2933C32.296 17.4029 32.3837 17.5125 32.5043 17.6002C32.7344 17.7755 32.9864 17.8084 33.2495 17.6878C33.5125 17.5673 33.7426 17.5673 34.0166 17.655C34.5316 17.8303 35.0357 17.7317 35.507 17.5015C35.6275 17.4358 35.7371 17.3591 35.8577 17.2933C35.8796 17.4467 35.7152 17.7097 35.5508 17.7645C35.2768 17.8522 34.9919 17.9289 34.7179 18.0276C34.6193 18.0604 34.5097 18.1043 34.422 18.1591C34.1152 18.3344 33.7974 18.4659 33.4467 18.4988C32.9864 18.5426 32.5919 18.3563 32.3399 17.9947C32.0111 17.5344 31.5618 17.3371 31.0248 17.2714C30.8166 17.2495 30.6193 17.2276 30.4878 17.0303C30.4659 16.9974 30.3892 16.9865 30.3344 16.9645C29.8412 16.855 29.5454 16.5262 29.5344 16.0659H29.5234Z" fill="url(#paint4_linear_67_7512)"/>
<path d="M33.4367 19.1671C33.7326 19.2438 34.0395 19.3205 34.3463 19.3972C34.708 19.4849 35.0806 19.4958 35.4422 19.3972C35.6176 19.3424 35.76 19.2328 35.8587 19.0356C35.7162 19.0794 35.6066 19.1232 35.497 19.1342C35.2669 19.1561 35.0258 19.189 34.7847 19.178C34.5326 19.1561 34.3792 18.9698 34.3902 18.7506C34.3902 18.5753 34.4998 18.4438 34.6751 18.3999C34.7628 18.378 34.8614 18.3671 34.9491 18.3561C35.2559 18.3123 35.5518 18.2136 35.8148 18.0493C35.8477 18.0273 35.8915 18.0383 35.9244 18.0273C35.9244 18.0712 35.9354 18.115 35.9244 18.1479C35.9134 18.1917 35.8806 18.2246 35.8477 18.2575C35.6176 18.4328 35.3765 18.5753 35.0696 18.5972C35.0258 18.5972 34.9929 18.6301 34.9491 18.641C34.9819 18.6739 35.0148 18.7178 35.0477 18.7397C35.245 18.8164 35.4532 18.8164 35.6614 18.7945C35.771 18.7835 35.8806 18.7945 35.9354 18.9041C35.9902 19.0136 35.9682 19.1232 35.8915 19.2109C35.4093 19.715 34.9819 19.8575 34.3354 19.6493C34.0176 19.5506 33.7217 19.3862 33.4258 19.2547L33.4477 19.178L33.4367 19.1671Z" fill="url(#paint5_linear_67_7512)"/>
<path d="M33.2614 18.8491C33.1847 18.8491 33.108 18.882 33.0422 18.882C32.6258 18.9039 32.2532 18.7505 31.8915 18.5861C31.6066 18.4546 31.3436 18.3011 31.1463 18.0491C31.0806 17.9614 31.0148 17.8518 30.971 17.7532C30.9162 17.6436 30.9491 17.5998 31.0696 17.6217C31.4422 17.6655 31.7929 17.7642 32.0559 18.0491C32.1765 18.1806 32.297 18.3231 32.4285 18.4546C32.6587 18.6628 32.9217 18.7943 33.2395 18.8052C33.2395 18.8052 33.2614 18.8053 33.2724 18.8162V18.8381L33.2614 18.8491Z" fill="url(#paint6_linear_67_7512)"/>
<path d="M31.122 6.93674C31.122 7.05728 31.1439 7.15591 31.1439 7.2655C31.1439 7.3203 31.122 7.38605 31.0891 7.41893C30.9247 7.59427 30.8151 7.80249 30.7384 8.02167C30.7165 8.07646 30.6617 8.14221 30.6069 8.16413C30.4097 8.26276 30.322 8.20796 30.3329 7.98879C30.3658 7.51755 30.6288 7.18879 31.0343 6.95866C31.0562 6.9477 31.1001 6.93674 31.1329 6.92578L31.122 6.93674Z" fill="url(#paint7_linear_67_7512)"/>
<path d="M36.7589 19.3969C36.7589 19.3969 37.1754 19.879 37.7671 19.4955C37.7671 19.4955 38.4904 20.0105 38.9616 19.1558C38.9616 19.1558 39.937 18.9804 40.0027 18.016C40.0027 18.016 41.6795 18.2023 41.8 16.4599L41.7562 16.2736C41.7562 16.2736 42.6438 16.1311 42.7425 15.3092C42.7425 15.3092 42.7315 14.7832 42.5014 14.5202C42.5014 14.5202 43.6192 14.1037 43.6301 13.1941C43.652 12.2845 43.0164 11.7366 43.0164 11.7366C43.0164 11.7366 43.7945 11.1229 43.9479 10.0051C44.1123 8.8873 43.0822 7.97771 43.0822 7.97771C43.0822 7.97771 42.337 7.49552 41.7671 7.57224C41.7671 7.57224 41.8877 6.49827 41.4931 5.96128C41.0986 5.4243 40.5726 5.32567 40.5726 5.32567C40.5726 5.32567 40.2329 5.19417 39.7288 5.39143C39.7288 5.39143 39.6521 4.85444 38.8849 4.64622C38.8849 4.64622 38.1945 4.60238 38.0411 4.97498C38.0411 4.97498 37.9863 4.39416 37.1973 4.44896C36.4082 4.50375 36.5507 5.93937 36.5507 5.93937C36.5507 5.93937 36.1562 7.1558 36.748 7.7147L36.9452 7.901C36.9452 7.901 36.5617 7.94484 36.4959 8.71196C36.4302 9.47908 36.4959 10.3448 36.4959 10.3448C36.5069 10.4544 36.5507 10.6188 36.6384 10.7941C36.748 11.0024 36.8795 11.1448 36.9671 11.2215C37.1315 11.2215 37.2849 11.2215 37.4493 11.2325C37.4493 11.2325 36.9562 11.2215 36.7808 11.4736C36.6055 11.7256 36.474 13.1284 36.5507 14.5311C36.6274 15.9229 36.8247 15.8352 36.8247 15.8352L37.1644 15.9996C37.1644 15.9996 36.8356 15.89 36.5945 16.5475C36.3534 17.216 36.6603 17.9174 36.6603 17.9174C36.6603 17.9174 36.2658 18.5969 36.7808 19.4188L36.7589 19.3969Z" fill="#0C5178"/>
<path d="M36.8878 19.3534C36.8878 19.3534 37.3043 19.8356 37.896 19.452C37.896 19.452 38.6193 19.9671 39.0906 19.1123C39.0906 19.1123 40.0659 18.937 40.1316 17.9726C40.1316 17.9726 41.8083 18.1589 41.9289 16.4164L41.8851 16.2301C41.8851 16.2301 42.7727 16.0877 42.8714 15.2657C42.8714 15.2657 42.8604 14.7397 42.6303 14.4767C42.6303 14.4767 43.7481 14.0603 43.759 13.1507C43.7809 12.2411 43.1453 11.6931 43.1453 11.6931C43.1453 11.6931 43.9234 11.0794 44.0768 9.96164C44.2412 8.84384 43.2111 7.93425 43.2111 7.93425C43.2111 7.93425 42.4659 7.45207 41.896 7.52878C41.896 7.52878 42.0166 6.45481 41.6221 5.91782C41.2275 5.38084 40.7015 5.28221 40.7015 5.28221C40.7015 5.28221 40.3618 5.1507 39.8577 5.34796C39.8577 5.34796 39.781 4.81098 39.0138 4.60276C39.0138 4.60276 38.3234 4.55892 38.17 4.93153C38.17 4.93153 38.1152 4.35071 37.3262 4.4055C36.5371 4.4603 36.6796 5.89591 36.6796 5.89591C36.6796 5.89591 36.2851 7.11234 36.8769 7.67124L37.0741 7.85755C37.0741 7.85755 36.6906 7.90138 36.6248 8.6685C36.5591 9.43562 36.6248 10.3014 36.6248 10.3014C36.6358 10.411 36.6796 10.5753 36.7673 10.7507C36.8769 10.9589 37.0084 11.1014 37.096 11.1781C37.2604 11.1781 37.4139 11.1781 37.5782 11.189C37.5782 11.189 37.0851 11.1781 36.9097 11.4301C36.7344 11.6822 36.6029 13.0849 36.6796 14.4877C36.7563 15.8794 36.9536 15.7918 36.9536 15.7918L37.2933 15.9561C37.2933 15.9561 36.9645 15.8466 36.7234 16.5041C36.4823 17.1726 36.7892 17.8739 36.7892 17.8739C36.7892 17.8739 36.3947 18.5534 36.9097 19.3753L36.8878 19.3534Z" fill="url(#paint8_linear_67_7512)"/>
<defs>
<linearGradient id="paint0_linear_67_7512" x1="32.451" y1="7.76972" x2="36.1112" y2="7.76972" gradientUnits="userSpaceOnUse">
<stop stop-color="#E86031"/>
<stop offset="1" stop-color="#EF9D43"/>
</linearGradient>
<linearGradient id="paint1_linear_67_7512" x1="29.0419" y1="13.2385" x2="36.1323" y2="13.2385" gradientUnits="userSpaceOnUse">
<stop stop-color="#E86031"/>
<stop offset="0.9" stop-color="#EF9D43"/>
</linearGradient>
<linearGradient id="paint2_linear_67_7512" x1="29.153" y1="15.1892" x2="35.816" y2="15.1892" gradientUnits="userSpaceOnUse">
<stop stop-color="#E86031"/>
<stop offset="0.9" stop-color="#EF9D43"/>
</linearGradient>
<linearGradient id="paint3_linear_67_7512" x1="29.3266" y1="7.93404" x2="33.5019" y2="7.93404" gradientUnits="userSpaceOnUse">
<stop stop-color="#E86031"/>
<stop offset="1" stop-color="#EF9D43"/>
</linearGradient>
<linearGradient id="paint4_linear_67_7512" x1="29.5234" y1="17.2824" x2="35.8577" y2="17.2824" gradientUnits="userSpaceOnUse">
<stop stop-color="#E86031"/>
<stop offset="1" stop-color="#EF9D43"/>
</linearGradient>
<linearGradient id="paint5_linear_67_7512" x1="33.4148" y1="18.8712" x2="35.9682" y2="18.8712" gradientUnits="userSpaceOnUse">
<stop stop-color="#E86031"/>
<stop offset="1" stop-color="#EF9D43"/>
</linearGradient>
<linearGradient id="paint6_linear_67_7512" x1="30.9381" y1="18.2463" x2="33.2614" y2="18.2463" gradientUnits="userSpaceOnUse">
<stop stop-color="#E86031"/>
<stop offset="1" stop-color="#EF9D43"/>
</linearGradient>
<linearGradient id="paint7_linear_67_7512" x1="30.3329" y1="7.57235" x2="31.1439" y2="7.57235" gradientUnits="userSpaceOnUse">
<stop stop-color="#E86031"/>
<stop offset="1" stop-color="#EF9D43"/>
</linearGradient>
<linearGradient id="paint8_linear_67_7512" x1="36.5262" y1="12" x2="44.0878" y2="12" gradientUnits="userSpaceOnUse">
<stop stop-color="#2E6C97"/>
<stop offset="0.8" stop-color="#46A2D7"/>
</linearGradient>
</defs>
</svg>
